<svg width="10" height="6" viewBox="0 0 10 6" fill="none" xmlns="http://www.w3.org/2000/svg">
<path d="M9.47136 0.471344C9.34634 0.346364 9.1768 0.276154 9.00003 0.276154C8.82325 0.276154 8.65371 0.346364 8.52869 0.471344L5.47136 3.52868C5.34461 3.65034 5.17572 3.71827 5.00003 3.71827C4.82434 3.71827 4.65545 3.65034 4.52869 3.52868L1.47136 0.471344C1.34563 0.349906 1.17722 0.282709 1.00243 0.284228C0.827629 0.285747 0.660421 0.35586 0.536815 0.479465C0.41321 0.603071 0.343097 0.770279 0.341578 0.945077C0.340059 1.11987 0.407256 1.28828 0.528694 1.41401L3.58536 4.47134C3.77108 4.6571 3.99158 4.80445 4.23425 4.90498C4.47692 5.00551 4.73702 5.05725 4.99969 5.05725C5.26237 5.05725 5.52247 5.00551 5.76514 4.90498C6.00781 4.80445 6.22831 4.6571 6.41403 4.47134L9.47136 1.41401C9.59634 1.28899 9.66655 1.11945 9.66655 0.942677C9.66655 0.765901 9.59634 0.596363 9.47136 0.471344V0.471344Z" fill="#626466"/>
</svg>
